<?xml version="1.0" encoding="utf-8"?><!-- Uploaded to: SVG Repo, www.svgrepo.com, Generator: SVG Repo Mixer Tools -->
<svg fill="#000000" width="800px" height="800px" viewBox="0 0 24 24" id="download-alt" data-name="Flat Color" xmlns="http://www.w3.org/2000/svg" class="icon flat-color"><path id="secondary" d="M16.71,11.29a1,1,0,0,0-1.42,0L13,13.59V3a1,1,0,0,0-2,0V13.59l-2.29-2.3a1,1,0,1,0-1.42,1.42l4,4a1,1,0,0,0,1.42,0l4-4A1,1,0,0,0,16.71,11.29Z" style="fill: rgb(44, 169, 188);"></path><path id="primary" d="M19,22H5a1,1,0,0,1,0-2H19a1,1,0,0,1,0,2Z" style="fill: rgb(0, 0, 0);"></path></svg>